#N canvas 1922 86 1507 893 12;
#X declare -path mtl;
#X msg 42 63 \; pd dsp 1;
#X obj 42 32 loadbang;
#X obj 149 36 import Gem;
#X obj 146 70 import zexy;
#X obj 42 175 mtl/mtlBrowser;
#X obj 260 37 declare -path mtl;
#N canvas 3277 1161 1622 946 step 0;
#X obj 188 65 gemhead;
#X floatatom 225 314 5 0 100 1 size - -;
#X msg 198 149 font \$1;
#X msg 206 175 text hello world!;
#X msg 214 265 alias \$1;
#X obj 214 247 tgl 15 0 empty empty empty 0 -6 0 8 -262144 -1 -1 1
1;
#X floatatom 282 64 5 -10 10 0 - - -;
#X floatatom 251 64 3 -3.5 3.5 0 - - -;
#X obj 188 335 text2d;
#X obj 107 237 r \$0-step;
#X obj 108 263 + 1;
#X obj 465 18 loadbang;
#X obj 214 222 loadbang;
#X msg 215 291 justify center base;
#X obj 298 316 loadbang;
#X obj 328 112 l2s;
#X obj 186 -26 r \$0-isPlaying;
#X obj 67 42 inlet;
#X obj 187 2 sel 0;
#X msg 188 34 0;
#X obj 189 86 translateXYZ 0 -1 0;
#X msg 536 178 fonts/Strengthen.ttf;
#X msg 298 341 488;
#X connect 0 0 20 0;
#X connect 1 0 8 1;
#X connect 2 0 8 0;
#X connect 3 0 8 0;
#X connect 4 0 8 0;
#X connect 5 0 4 0;
#X connect 6 0 20 3;
#X connect 7 0 20 1;
#X connect 9 0 10 0;
#X connect 10 0 8 0;
#X connect 11 0 21 0;
#X connect 12 0 5 0;
#X connect 13 0 8 0;
#X connect 14 0 22 0;
#X connect 14 0 13 0;
#X connect 15 0 2 0;
#X connect 16 0 18 0;
#X connect 17 0 0 0;
#X connect 18 0 19 0;
#X connect 19 0 0 0;
#X connect 20 0 8 0;
#X connect 21 0 15 0;
#X connect 22 0 8 1;
#X restore 1132 117 pd step;
#N canvas 3137 614 596 418 peers 0;
#X obj 188 65 gemhead;
#X floatatom 225 314 5 0 100 1 size - -;
#X msg 198 149 font \$1;
#X msg 214 265 alias \$1;
#X obj 214 247 tgl 15 0 empty empty empty 0 -6 0 8 -262144 -1 -1 1
1;
#X obj 188 335 text2d;
#X obj 405 64 loadbang;
#X obj 214 222 loadbang;
#X obj 298 316 loadbang;
#X obj 405 112 l2s;
#X obj 188 31 r \$0-isPlaying;
#X obj 340 170 r \$0-peers;
#X msg 215 291 justify right base;
#X msg 405 88 fonts/Square.ttf;
#X msg 340 223 text Peers: \$1;
#X obj 340 195 + 1;
#X msg 298 339 48;
#X obj 188 105 translateXYZ 6.8 -3.8 0;
#X obj 78 22 inlet;
#X connect 0 0 17 0;
#X connect 1 0 5 1;
#X connect 2 0 5 0;
#X connect 3 0 5 0;
#X connect 4 0 3 0;
#X connect 6 0 13 0;
#X connect 7 0 4 0;
#X connect 8 0 16 0;
#X connect 8 0 12 0;
#X connect 9 0 2 0;
#X connect 10 0 0 0;
#X connect 11 0 15 0;
#X connect 12 0 5 0;
#X connect 13 0 9 0;
#X connect 14 0 5 0;
#X connect 15 0 14 0;
#X connect 16 0 5 1;
#X connect 17 0 5 0;
#X connect 18 0 0 0;
#X restore 529 335 pd peers;
#N canvas 2298 512 1401 1230 bpm 0;
#X obj 188 65 gemhead;
#X floatatom 225 314 5 0 100 1 size - -;
#X msg 198 149 font \$1;
#X msg 214 265 alias \$1;
#X obj 214 247 tgl 15 0 empty empty empty 0 -6 0 8 -262144 -1 -1 1
1;
#X obj 188 335 text2d;
#X obj 405 64 loadbang;
#X obj 214 222 loadbang;
#X obj 298 316 loadbang;
#X obj 405 112 l2s;
#X obj 188 31 r \$0-isPlaying;
#X msg 405 88 fonts/Square.ttf;
#X msg 340 220 text BPM: \$1;
#X obj 339 170 r \$0-bpm;
#X msg 215 291 justify left base;
#X msg 298 340 72;
#X obj 70 15 r \$0-showBPM;
#X obj 188 105 translateXYZ -6.9 3.4 0;
#X obj 678 243 inlet;
#X connect 0 0 17 0;
#X connect 1 0 5 1;
#X connect 2 0 5 0;
#X connect 3 0 5 0;
#X connect 4 0 3 0;
#X connect 6 0 11 0;
#X connect 7 0 4 0;
#X connect 8 0 15 0;
#X connect 8 0 14 0;
#X connect 9 0 2 0;
#X connect 10 0 0 0;
#X connect 11 0 9 0;
#X connect 12 0 5 0;
#X connect 13 0 12 0;
#X connect 14 0 5 0;
#X connect 15 0 5 1;
#X connect 16 0 0 0;
#X connect 17 0 5 0;
#X connect 18 0 0 0;
#X restore 532 396 pd bpm;
#N canvas 319 655 851 863 link 0;
#X msg 417 131 tempo \$1;
#X msg 231 131 resolution \$1;
#X msg 327 131 reset \$1 \$2;
#X obj 327 110 pack f f;
#X floatatom 261 257 5 0 0 1 beat_time - -;
#X floatatom 233 278 5 0 0 1 phase - -;
#X floatatom 206 306 5 0 0 1 step - -;
#X floatatom 289 235 5 0 0 1 tempo - -;
#X obj 88 111 tgl 15 0 empty empty empty 17 7 0 10 -262144 -1 -1 1
1;
#X obj 206 194 abl_link~ 1 0 4 134;
#X floatatom 417 112 5 0 0 2 tempo - -;
#X floatatom 372 91 5 0 0 2 quantum - -;
#X floatatom 327 91 5 0 0 2 beat - -;
#X floatatom 231 111 5 0 0 2 resolution - -;
#X msg 88 132 connect \$1;
#X floatatom 314 325 5 0 0 0 - - -;
#X obj 314 303 r #abl_link_num_peers;
#X floatatom 388 226 5 0 0 1 is_playing - -;
#X obj 171 111 tgl 15 0 empty empty empty 17 7 0 10 -262144 -1 -1 0
1;
#X msg 171 131 play \$1;
#X floatatom 487 112 5 0 0 0 - - -;
#X msg 487 131 offset \$1;
#X obj 148 245 s \$0-step;
#X obj 314 365 s \$0-peers;
#X obj 390 254 s \$0-isPlaying;
#X obj 391 189 s \$0-bpm;
#X obj 88 76 loadbang;
#X obj 205 401 s \$0-beatTime;
#X obj 96 351 s \$0-phase;
#X obj 186 39 r \$0-linkStop;
#X obj 433 31 r \$0-linkBpm;
#X obj 437 374 int;
#X obj 84 682 tgl 15 0 empty empty empty 0 -6 0 8 -262144 -1 -1 0 1
;
#X floatatom 134 774 5 0 0 0 - - -;
#X floatatom 290 693 5 0 0 0 - - -;
#X floatatom 198 686 5 0 0 0 - - -;
#X floatatom 147 644 5 0 0 0 - - -;
#X text 64 663 Start/Stop;
#X obj 133 729 mtl/tempo;
#X floatatom 381 720 5 0 0 0 - - -;
#X text 416 724 Shuffle (0 to 1 Defaults to 0);
#X text 327 690 Divisions of a whole note (default 16);
#X text 191 666 Beat multiplier (default 1);
#X text 146 623 Tempo in beats per minute (default 120);
#X obj 134 799 s \$0-sixteen;
#X connect 0 0 9 0;
#X connect 1 0 9 0;
#X connect 2 0 9 0;
#X connect 3 0 2 0;
#X connect 8 0 14 0;
#X connect 9 0 6 0;
#X connect 9 0 22 0;
#X connect 9 1 5 0;
#X connect 9 1 28 0;
#X connect 9 2 4 0;
#X connect 9 2 27 0;
#X connect 9 3 7 0;
#X connect 9 3 31 0;
#X connect 9 4 17 0;
#X connect 9 4 24 0;
#X connect 9 4 38 0;
#X connect 10 0 0 0;
#X connect 11 0 3 1;
#X connect 12 0 3 0;
#X connect 13 0 1 0;
#X connect 14 0 9 0;
#X connect 16 0 15 0;
#X connect 16 0 23 0;
#X connect 18 0 19 0;
#X connect 19 0 9 0;
#X connect 20 0 21 0;
#X connect 21 0 9 0;
#X connect 26 0 8 0;
#X connect 29 0 19 0;
#X connect 30 0 0 0;
#X connect 31 0 25 0;
#X connect 31 0 38 1;
#X connect 32 0 38 0;
#X connect 34 0 38 3;
#X connect 35 0 38 2;
#X connect 36 0 38 1;
#X connect 38 0 33 0;
#X connect 38 0 44 0;
#X connect 39 0 38 4;
#X restore 42 214 pd link;
#X text 456 194 /offset Width Height: sets the Gem window offset.;
#X obj 145 107 import cyclone;
#N canvas 4262 664 581 501 stepDingbats1 0;
#X obj 253 114 gemhead;
#X floatatom 290 363 5 0 100 1 size - -;
#X msg 263 198 font \$1;
#X msg 279 314 alias \$1;
#X obj 279 296 tgl 15 0 empty empty empty 0 -6 0 8 -262144 -1 -1 1
1;
#X floatatom 347 113 5 -10 10 0 - - -;
#X floatatom 316 113 3 -3.5 3.5 0 - - -;
#X obj 253 384 text2d;
#X obj 407 111 loadbang;
#X obj 279 271 loadbang;
#X msg 280 340 justify center base;
#X obj 363 365 loadbang;
#X obj 407 159 l2s;
#X msg 407 135 fonts/Cyclopia.ttf;
#X obj 147 336 mtl/asciiToPd;
#X obj 147 262 random 26;
#X obj 147 235 t b;
#X obj 147 289 + 98;
#X msg 271 224 text \$1;
#X obj 146 369 l2s;
#X msg 363 390 1000;
#X obj 255 135 translateXYZ 1 -2 0;
#X obj 40 299 onebang;
#X obj 86 112 r \$0-step;
#X obj 86 163 sel 0;
#X obj 67 42 inlet;
#X obj 257 18 r \$0-isPlaying;
#X obj 258 46 sel 0;
#X msg 259 78 0;
#X connect 0 0 21 0;
#X connect 1 0 7 1;
#X connect 2 0 7 0;
#X connect 3 0 7 0;
#X connect 4 0 3 0;
#X connect 5 0 21 3;
#X connect 6 0 21 1;
#X connect 8 0 13 0;
#X connect 9 0 4 0;
#X connect 10 0 7 0;
#X connect 11 0 20 0;
#X connect 11 0 10 0;
#X connect 12 0 2 0;
#X connect 13 0 12 0;
#X connect 14 0 19 0;
#X connect 15 0 17 0;
#X connect 16 0 15 0;
#X connect 17 0 14 0;
#X connect 18 0 7 0;
#X connect 19 0 18 0;
#X connect 20 0 7 1;
#X connect 21 0 7 0;
#X connect 23 0 24 0;
#X connect 24 0 16 0;
#X connect 25 0 0 0;
#X connect 26 0 27 0;
#X connect 27 0 28 0;
#X connect 28 0 0 0;
#X restore 1133 196 pd stepDingbats1;
#N canvas 6112 931 581 501 stepDingbats2 0;
#X obj 253 114 gemhead;
#X floatatom 290 363 5 0 100 1 size - -;
#X msg 263 198 font \$1;
#X msg 279 314 alias \$1;
#X obj 279 296 tgl 15 0 empty empty empty 0 -6 0 8 -262144 -1 -1 1
1;
#X floatatom 347 113 5 -10 10 0 - - -;
#X floatatom 316 113 3 -3.5 3.5 0 - - -;
#X obj 253 384 text2d;
#X obj 407 111 loadbang;
#X obj 279 271 loadbang;
#X obj 363 365 loadbang;
#X obj 407 159 l2s;
#X obj 147 336 mtl/asciiToPd;
#X obj 147 262 random 26;
#X obj 147 235 t b;
#X obj 147 289 + 98;
#X msg 271 224 text \$1;
#X obj 146 369 l2s;
#X msg 363 390 1000;
#X obj 40 299 onebang;
#X obj 86 112 r \$0-step;
#X obj 86 163 sel 0;
#X msg 407 135 fonts/ROBOTS.ttf;
#X msg 280 340 justify right base;
#X obj 255 135 translateXYZ 1.8 -2 0;
#X obj 67 42 inlet;
#X obj 256 18 r \$0-isPlaying;
#X obj 257 46 sel 0;
#X msg 258 78 0;
#X connect 0 0 24 0;
#X connect 1 0 7 1;
#X connect 2 0 7 0;
#X connect 3 0 7 0;
#X connect 4 0 3 0;
#X connect 5 0 24 3;
#X connect 6 0 24 1;
#X connect 8 0 22 0;
#X connect 9 0 4 0;
#X connect 10 0 18 0;
#X connect 10 0 23 0;
#X connect 11 0 2 0;
#X connect 12 0 17 0;
#X connect 13 0 15 0;
#X connect 14 0 13 0;
#X connect 15 0 12 0;
#X connect 16 0 7 0;
#X connect 17 0 16 0;
#X connect 18 0 7 1;
#X connect 20 0 21 0;
#X connect 21 0 14 0;
#X connect 22 0 11 0;
#X connect 23 0 7 0;
#X connect 24 0 7 0;
#X connect 25 0 0 0;
#X connect 26 0 27 0;
#X connect 27 0 28 0;
#X connect 28 0 0 0;
#X restore 1141 275 pd stepDingbats2;
#N canvas 6112 931 581 501 stepDingbats3 0;
#X obj 253 114 gemhead;
#X floatatom 290 363 5 0 100 1 size - -;
#X msg 263 198 font \$1;
#X msg 279 314 alias \$1;
#X obj 279 296 tgl 15 0 empty empty empty 0 -6 0 8 -262144 -1 -1 1
1;
#X floatatom 347 113 5 -10 10 0 - - -;
#X floatatom 316 113 3 -3.5 3.5 0 - - -;
#X obj 253 384 text2d;
#X obj 407 111 loadbang;
#X obj 279 271 loadbang;
#X obj 363 365 loadbang;
#X obj 407 159 l2s;
#X obj 147 336 mtl/asciiToPd;
#X obj 147 262 random 26;
#X obj 147 235 t b;
#X obj 147 289 + 98;
#X msg 271 224 text \$1;
#X obj 146 369 l2s;
#X msg 363 390 1000;
#X obj 40 299 onebang;
#X obj 86 112 r \$0-step;
#X msg 280 340 justify right base;
#X obj 255 135 translateXYZ 2.2 -2 0;
#X obj 67 42 inlet;
#X obj 253 23 r \$0-isPlaying;
#X obj 254 51 sel 0;
#X msg 255 83 0;
#X msg 407 135 fonts/RFXSplatz.ttf;
#X connect 0 0 22 0;
#X connect 1 0 7 1;
#X connect 2 0 7 0;
#X connect 3 0 7 0;
#X connect 4 0 3 0;
#X connect 5 0 22 3;
#X connect 6 0 22 1;
#X connect 8 0 27 0;
#X connect 9 0 4 0;
#X connect 10 0 18 0;
#X connect 10 0 21 0;
#X connect 11 0 2 0;
#X connect 12 0 17 0;
#X connect 13 0 15 0;
#X connect 14 0 13 0;
#X connect 15 0 12 0;
#X connect 16 0 7 0;
#X connect 17 0 16 0;
#X connect 18 0 7 1;
#X connect 20 0 14 0;
#X connect 21 0 7 0;
#X connect 22 0 7 0;
#X connect 23 0 0 0;
#X connect 24 0 25 0;
#X connect 25 0 26 0;
#X connect 26 0 0 0;
#X connect 27 0 11 0;
#X restore 1150 361 pd stepDingbats3;
#N canvas 5984 897 786 707 feedback 0;
#X obj 163 125 hsl 128 15 0 1 0 0 empty empty empty -2 -8 0 10 -262144
-1 -1 0 1;
#X floatatom 160 143 5 0 0 0 - - -;
#X floatatom 225 179 5 0 0 0 - - -;
#X obj 86 240 tgl 15 0 empty empty empty 17 7 0 10 -262144 -1 -1 1
1;
#X obj 86 208 loadbang;
#X text 105 240 feedback on/off;
#X text 299 127 feedback amount (0-1);
#X obj 205 377 mtl/gemsFeedback;
#X obj 225 156 iemlib/init 0.1;
#X text 270 173 feedback in/out;
#X floatatom 274 213 5 0 0 0 - - -;
#X floatatom 309 248 5 0 0 0 - - -;
#X text 308 210 feedback left/right;
#X text 346 247 feedback down/up;
#X floatatom 332 312 5 0 0 0 - - -;
#X text 339 329 feedback rotate;
#X text 340 370 Argument 1: feedback amount;
#X text 343 406 Argument 3: feeback left/right;
#X text 340 388 Argument 2: feedback in/out;
#X text 345 424 Argument 4: feedback down/up;
#X text 346 442 Argument 5: feedback rotate;
#X obj 121 76 inlet;
#X obj 160 103 iemlib/init 0;
#X connect 0 0 1 0;
#X connect 1 0 7 1;
#X connect 2 0 7 2;
#X connect 3 0 7 0;
#X connect 4 0 3 0;
#X connect 8 0 2 0;
#X connect 10 0 7 3;
#X connect 11 0 7 4;
#X connect 14 0 7 5;
#X connect 21 0 1 0;
#X connect 22 0 0 0;
#X restore 1006 607 pd feedback;
#X obj 1010 522 hsl 128 70 0 1 0 0 empty empty empty -2 -8 0 10 -262144
-1 -1 0 1;
#N canvas 5762 374 949 1037 stepDingbats4 0;
#X obj 391 376 gemhead;
#X floatatom 423 659 5 0 100 1 size - -;
#X msg 396 494 font \$1;
#X msg 412 610 alias \$1;
#X obj 412 592 tgl 15 0 empty empty empty 0 -6 0 8 -262144 -1 -1 1
1;
#X floatatom 480 409 5 -10 10 0 - - -;
#X floatatom 449 409 3 -3.5 3.5 0 - - -;
#X obj 386 680 text2d;
#X obj 552 406 loadbang;
#X obj 412 567 loadbang;
#X obj 496 661 loadbang;
#X obj 552 454 l2s;
#X obj 280 632 mtl/asciiToPd;
#X obj 280 558 random 26;
#X obj 280 585 + 98;
#X msg 404 520 text \$1;
#X obj 279 665 l2s;
#X obj 173 595 onebang;
#X obj 219 408 r \$0-step;
#X msg 413 636 justify right base;
#X msg 496 686 820;
#X obj 388 431 translateXYZ 2.2 -1.6 0;
#X obj 200 338 inlet;
#X obj 391 290 r \$0-isPlaying;
#X obj 392 318 sel 0;
#X msg 393 350 0;
#X obj 216 531 color 0 1 0;
#X obj 193 474 t b b;
#X obj 301 446 random 100;
#X obj 300 477 / 100;
#X obj 290 503 pack f f f;
#X msg 552 430 fonts/GailsUnicorn.ttf;
#X connect 0 0 26 0;
#X connect 1 0 7 1;
#X connect 2 0 7 0;
#X connect 3 0 7 0;
#X connect 4 0 3 0;
#X connect 5 0 21 3;
#X connect 6 0 21 1;
#X connect 8 0 31 0;
#X connect 9 0 4 0;
#X connect 10 0 20 0;
#X connect 10 0 19 0;
#X connect 11 0 2 0;
#X connect 12 0 16 0;
#X connect 13 0 14 0;
#X connect 14 0 12 0;
#X connect 15 0 7 0;
#X connect 16 0 15 0;
#X connect 18 0 27 0;
#X connect 19 0 7 0;
#X connect 20 0 7 1;
#X connect 21 0 7 0;
#X connect 22 0 0 0;
#X connect 23 0 24 0;
#X connect 24 0 25 0;
#X connect 25 0 0 0;
#X connect 26 0 21 0;
#X connect 27 0 13 0;
#X connect 27 1 28 0;
#X connect 28 0 29 0;
#X connect 29 0 30 0;
#X connect 30 0 26 1;
#X connect 31 0 11 0;
#X restore 1146 453 pd stepDingbats4;
#X obj 1015 68 tgl 50 0 empty empty empty 17 7 0 10 -262144 -1 -1 0
1;
#X obj 1017 145 tgl 50 0 empty empty empty 17 7 0 10 -262144 -1 -1
0 1;
#X obj 1013 224 tgl 50 0 empty empty empty 17 7 0 10 -262144 -1 -1
0 1;
#X obj 1017 308 tgl 50 0 empty empty empty 17 7 0 10 -262144 -1 -1
0 1;
#X obj 1011 399 tgl 50 0 empty empty empty 17 7 0 10 -262144 -1 -1
0 1;
#X obj 456 98 tgl 50 0 empty empty empty 17 7 0 10 -262144 -1 -1 1
1;
#N canvas 3622 483 1472 1113 time 0;
#X obj 188 65 gemhead;
#X floatatom 225 314 5 0 100 1 size - -;
#X msg 198 149 font \$1;
#X msg 214 265 alias \$1;
#X obj 214 247 tgl 15 0 empty empty empty 0 -6 0 8 -262144 -1 -1 1
1;
#X floatatom 282 64 5 -10 10 0 - - -;
#X floatatom 251 64 3 -3.5 3.5 0 - - -;
#X obj 188 335 text2d;
#X obj 366 58 loadbang;
#X obj 214 222 loadbang;
#X msg 215 291 justify center base;
#X obj 298 316 loadbang;
#X obj 366 106 l2s;
#X obj 186 -26 r \$0-isPlaying;
#X obj 67 42 inlet;
#X obj 566 301 time, f 16;
#X obj 540 214 metro 1000;
#X obj 521 161 tgl 15 0 empty empty empty 17 7 0 10 -262144 -1 -1 0
1;
#X obj 500 369 pack f f f;
#X obj 564 158 loadbang;
#X msg 206 175 text \$1 : \$2;
#X msg 366 82 fonts/FLIPclockblack.ttf;
#X msg 298 341 32;
#X obj 189 86 translateXYZ -6.6 -3.7 0;
#X connect 0 0 23 0;
#X connect 1 0 7 1;
#X connect 2 0 7 0;
#X connect 3 0 7 0;
#X connect 4 0 3 0;
#X connect 5 0 23 3;
#X connect 6 0 23 1;
#X connect 8 0 21 0;
#X connect 9 0 4 0;
#X connect 10 0 7 0;
#X connect 11 0 22 0;
#X connect 11 0 10 0;
#X connect 12 0 2 0;
#X connect 13 0 0 0;
#X connect 14 0 0 0;
#X connect 15 0 18 0;
#X connect 15 1 18 1;
#X connect 16 0 15 0;
#X connect 17 0 16 0;
#X connect 18 0 20 0;
#X connect 19 0 16 0;
#X connect 20 0 7 0;
#X connect 21 0 12 0;
#X connect 22 0 7 1;
#X connect 23 0 7 0;
#X restore 533 459 pd time;
#X msg 610 96 /border 1;
#X msg 610 69 /border 0;
#X obj 1165 518 tgl 50 0 empty empty empty 17 7 0 10 -262144 -1 -1
0 1;
#N canvas 2388 225 3206 1572 phase 0;
#X obj 252 332 gemhead;
#X obj 48 26 inlet;
#X obj 251 243 r \$0-isPlaying;
#X obj 252 271 sel 0;
#X msg 253 303 0;
#X obj 131 300 r \$0-phase;
#X msg 126 391 draw line;
#X obj 130 360 * 4;
#X obj 131 328 - 2;
#X obj 359 190 r \$0-step;
#X obj 252 368 color 0 1 0;
#X obj 391 265 random 100;
#X obj 390 296 / 100;
#X obj 327 334 pack f f f;
#X obj 479 267 random 100;
#X obj 478 298 / 100;
#X obj 565 266 random 100;
#X obj 564 297 / 100;
#X obj 360 222 t b b b;
#X obj 251 439 cube 1;
#X obj 62 361 loadbang;
#X obj 859 344 gemhead;
#X obj 858 255 r \$0-isPlaying;
#X obj 859 283 sel 0;
#X msg 860 315 0;
#X obj 738 312 r \$0-phase;
#X msg 733 403 draw line;
#X obj 966 202 r \$0-step;
#X obj 859 380 color 0 1 0;
#X obj 998 277 random 100;
#X obj 997 308 / 100;
#X obj 934 346 pack f f f;
#X obj 1086 279 random 100;
#X obj 1085 310 / 100;
#X obj 1172 278 random 100;
#X obj 1171 309 / 100;
#X obj 967 234 t b b b;
#X obj 669 373 loadbang;
#X obj 864 461 cube 1;
#X obj 252 402 scaleXYZ 2.2 -1 0;
#X obj 738 340 + 2;
#X obj 737 372 * 2;
#X obj 859 414 scaleXYZ 2.2 1.6 3;
#X obj 1075 427 random 4;
#X obj 510 415 random 4;
#X msg 482 508 width \$1;
#X floatatom 461 477 5 0 0 0 - - -;
#X obj 497 538 random 10;
#X connect 0 0 10 0;
#X connect 1 0 0 0;
#X connect 1 0 21 0;
#X connect 2 0 3 0;
#X connect 3 0 4 0;
#X connect 4 0 0 0;
#X connect 5 0 8 0;
#X connect 6 0 19 0;
#X connect 7 0 39 1;
#X connect 8 0 7 0;
#X connect 9 0 18 0;
#X connect 10 0 39 0;
#X connect 11 0 12 0;
#X connect 12 0 13 2;
#X connect 13 0 10 1;
#X connect 14 0 15 0;
#X connect 15 0 13 0;
#X connect 16 0 17 0;
#X connect 17 0 13 1;
#X connect 18 0 14 0;
#X connect 18 1 11 0;
#X connect 18 2 16 0;
#X connect 18 2 43 0;
#X connect 18 2 44 0;
#X connect 18 2 47 0;
#X connect 20 0 6 0;
#X connect 21 0 28 0;
#X connect 22 0 23 0;
#X connect 23 0 24 0;
#X connect 24 0 21 0;
#X connect 25 0 40 0;
#X connect 26 0 38 0;
#X connect 27 0 36 0;
#X connect 28 0 42 0;
#X connect 29 0 30 0;
#X connect 30 0 31 2;
#X connect 31 0 28 1;
#X connect 32 0 33 0;
#X connect 33 0 31 0;
#X connect 34 0 35 0;
#X connect 35 0 31 1;
#X connect 36 0 32 0;
#X connect 36 1 29 0;
#X connect 36 2 34 0;
#X connect 37 0 26 0;
#X connect 39 0 19 0;
#X connect 40 0 41 0;
#X connect 41 0 42 1;
#X connect 42 0 38 0;
#X connect 43 0 42 3;
#X connect 44 0 39 3;
#X connect 45 0 19 0;
#X connect 46 0 45 0;
#X connect 47 0 45 0;
#X restore 1240 549 pd phase;
#N canvas 616 379 1110 635 camera 0;
#X obj 52 17 inlet;
#X obj 93 116 r \$0-step;
#X obj 93 140 t b;
#X obj 141 177 spigot;
#X obj 147 328 random 4;
#X obj 224 329 random 4;
#X obj 309 332 random 4;
#X obj 142 299 t b b b;
#X obj 146 359 pack f f f;
#X obj 256 372 s globalCamera;
#X obj 134 213 random 8;
#X obj 138 241 int;
#X obj 137 269 sel 4;
#X connect 0 0 3 1;
#X connect 1 0 2 0;
#X connect 2 0 3 0;
#X connect 3 0 10 0;
#X connect 4 0 8 0;
#X connect 5 0 8 1;
#X connect 6 0 8 2;
#X connect 7 0 4 0;
#X connect 7 1 5 0;
#X connect 7 2 6 0;
#X connect 8 0 9 0;
#X connect 10 0 11 0;
#X connect 11 0 12 0;
#X connect 12 0 7 0;
#X restore 1230 620 pd camera;
#X obj 1166 582 tgl 50 0 empty empty empty 17 7 0 10 -262144 -1 -1
0 1;
#X msg 610 126 /anti-aliasing 8;
#X obj 444 555 bng 50 250 50 0 empty empty empty 17 7 0 10 -262144
-1 -1;
#X text 444 527 GAME START;
#N canvas 2806 198 2744 1901 game 0;
#X obj 17 18 inlet;
#X obj 111 72 s \$0-linkStop;
#X msg 109 43 0;
#X obj 101 317 f;
#X obj 140 323 - 1;
#X obj 74 242 tgl 15 0 empty empty empty 17 7 0 10 -262144 -1 -1 0
1;
#X floatatom 57 409 5 0 0 0 - - -;
#X obj 106 378 sel 0;
#X obj 175 442 s \$0-linkStop;
#X msg 172 414 1;
#X obj 106 406 t b b;
#X obj 134 450 0;
#X obj 30 61 t b b;
#X text 106 17 1- send stop link;
#X text 116 174 2- start countdown timer prep;
#X obj 72 137 t b b b;
#X obj 341 339 s \$0-linkBpm;
#X obj 340 282 + 70;
#X obj 339 255 random 80;
#X obj 340 310 int;
#X text 337 227 SEND RANDOM BPM;
#X obj 56 594 gemhead;
#X floatatom 93 843 5 0 100 1 size - -;
#X msg 66 678 font \$1;
#X msg 82 794 alias \$1;
#X obj 82 776 tgl 15 0 empty empty empty 0 -6 0 8 -262144 -1 -1 1 1
;
#X obj 56 864 text2d;
#X obj 273 593 loadbang;
#X obj 82 751 loadbang;
#X obj 166 845 loadbang;
#X obj 273 641 l2s;
#X msg 273 617 fonts/Square.ttf;
#X msg 166 868 48;
#X msg 24 201 1;
#X msg 208 752 text Preparation countdown: \$1;
#X obj 56 634 translateXYZ 0 0 0;
#X msg 83 820 justify center base;
#X obj 72 533 loadbang;
#X msg 72 557 0;
#X obj 351 488 s \$0-showBPM;
#X msg 349 459 1;
#X obj 347 374 t b b;
#X obj 348 403 delay 5;
#X obj 348 427 b;
#X obj 162 481 s \$0-startJam;
#X text 171 387 3- start jam;
#X obj 578 593 gemhead;
#X floatatom 615 842 5 0 100 1 size - -;
#X msg 588 677 font \$1;
#X msg 604 793 alias \$1;
#X obj 604 775 tgl 15 0 empty empty empty 0 -6 0 8 -262144 -1 -1 1
1;
#X obj 578 863 text2d;
#X obj 660 673 loadbang;
#X obj 604 750 loadbang;
#X obj 688 844 loadbang;
#X obj 660 721 l2s;
#X msg 660 697 fonts/Square.ttf;
#X msg 688 867 48;
#X msg 605 819 justify center base;
#X obj 594 532 loadbang;
#X msg 594 556 0;
#X obj 812 665 f;
#X obj 850 666 - 1;
#X obj 52 273 metro 1000;
#X obj 806 634 metro 1000;
#X obj 859 576 t b b;
#X msg 854 603 1;
#X text 187 228 200;
#X obj 578 633 translateXYZ 0 -3.8 0;
#X obj 848 699 sel 0;
#X text 852 542 jam duration;
#X text 946 638 300;
#X text 987 613 1000;
#X obj 962 710 s \$0-linkStop;
#X msg 960 681 0;
#X obj 1015 779 s \$0-startJam;
#X msg 1015 749 0;
#X obj 1253 781 moses 60;
#X obj 938 836 / 60;
#X msg 928 890 text Jam ending countdown: \$1 minutes;
#X obj 936 859 int;
#X msg 1068 858 text Jam ending countdown: \$1 seconds;
#X obj 895 639 + 300;
#X obj 894 611 random 1000;
#X obj 117 200 random 200;
#X obj 219 75 s \$0-startJam;
#X msg 219 48 0;
#X obj 117 229 + 30;
#X connect 0 0 12 0;
#X connect 2 0 1 0;
#X connect 2 0 64 0;
#X connect 3 0 4 0;
#X connect 3 0 6 0;
#X connect 3 0 7 0;
#X connect 3 0 34 0;
#X connect 4 0 3 1;
#X connect 5 0 63 0;
#X connect 7 0 10 0;
#X connect 9 0 8 0;
#X connect 9 0 44 0;
#X connect 9 0 46 0;
#X connect 10 0 9 0;
#X connect 10 0 38 0;
#X connect 10 0 65 0;
#X connect 10 1 11 0;
#X connect 11 0 5 0;
#X connect 12 0 15 0;
#X connect 12 1 41 0;
#X connect 12 1 86 0;
#X connect 15 0 5 0;
#X connect 15 0 33 0;
#X connect 15 0 60 0;
#X connect 15 1 84 0;
#X connect 15 2 18 0;
#X connect 17 0 19 0;
#X connect 18 0 17 0;
#X connect 19 0 16 0;
#X connect 21 0 35 0;
#X connect 22 0 26 1;
#X connect 23 0 26 0;
#X connect 24 0 26 0;
#X connect 25 0 24 0;
#X connect 27 0 31 0;
#X connect 28 0 25 0;
#X connect 29 0 32 0;
#X connect 29 0 36 0;
#X connect 30 0 23 0;
#X connect 31 0 30 0;
#X connect 32 0 26 1;
#X connect 33 0 21 0;
#X connect 34 0 26 0;
#X connect 35 0 26 0;
#X connect 36 0 26 0;
#X connect 37 0 38 0;
#X connect 38 0 21 0;
#X connect 40 0 39 0;
#X connect 41 0 42 0;
#X connect 41 1 2 0;
#X connect 42 0 43 0;
#X connect 43 0 40 0;
#X connect 46 0 68 0;
#X connect 47 0 51 1;
#X connect 48 0 51 0;
#X connect 49 0 51 0;
#X connect 50 0 49 0;
#X connect 52 0 56 0;
#X connect 53 0 50 0;
#X connect 54 0 57 0;
#X connect 54 0 58 0;
#X connect 55 0 48 0;
#X connect 56 0 55 0;
#X connect 57 0 51 1;
#X connect 58 0 51 0;
#X connect 59 0 60 0;
#X connect 60 0 46 0;
#X connect 61 0 62 0;
#X connect 61 0 69 0;
#X connect 61 0 77 0;
#X connect 62 0 61 1;
#X connect 63 0 3 0;
#X connect 64 0 61 0;
#X connect 65 0 66 0;
#X connect 65 1 83 0;
#X connect 66 0 64 0;
#X connect 68 0 51 0;
#X connect 69 0 74 0;
#X connect 69 0 76 0;
#X connect 74 0 73 0;
#X connect 74 0 46 0;
#X connect 76 0 75 0;
#X connect 77 0 81 0;
#X connect 77 1 78 0;
#X connect 78 0 80 0;
#X connect 79 0 51 0;
#X connect 80 0 79 0;
#X connect 81 0 51 0;
#X connect 82 0 61 1;
#X connect 83 0 82 0;
#X connect 84 0 87 0;
#X connect 86 0 85 0;
#X connect 87 0 3 1;
#X restore 445 630 pd game;
#X text 1011 29 ::::::::::::CONTROLS::::::::::::::;
#X obj 884 351 r \$0-startJam;
#X obj 1184 63 tgl 50 0 empty empty empty 17 7 0 10 -262144 -1 -1 0
1;
#X obj 446 288 tgl 50 0 empty empty empty 17 7 0 10 -262144 -1 -1 0
1;
#X obj 447 349 tgl 50 0 empty empty empty 17 7 0 10 -262144 -1 -1 0
1;
#X obj 445 412 tgl 50 0 empty empty empty 17 7 0 10 -262144 -1 -1 0
1;
#X obj 452 158 mtl/gemsWin /dimen 1920 1080 /lighting 0 /border 0 /anti-aliasing
8 /offset 3841 0;
#N canvas 2929 783 2118 1027 sphere16 0;
#X obj 188 65 gemhead;
#X floatatom 282 64 5 -10 10 0 - - -;
#X floatatom 251 64 3 -3.5 3.5 0 - - -;
#X obj 186 -26 r \$0-isPlaying;
#X obj 67 42 inlet;
#X obj 187 2 sel 0;
#X msg 188 34 0;
#X obj 278 116 r \$0-sixteen;
#X floatatom 268 29 5 0 0 0 - - -;
#X msg 34 163 draw line;
#X obj 35 136 loadbang;
#X obj 278 146 + 3;
#X floatatom 213 150 5 0 0 0 - - -;
#X obj 292 188 r \$0-phase;
#X obj 293 216 maxlib/scale 0 4 0.4 0.6;
#X obj 189 86 translateXYZ 2 1.75 0;
#X obj 190 176 sphere;
#X obj 753 147 color 0 1 0;
#X obj 966 50 random 100;
#X obj 965 81 / 100;
#X obj 902 119 pack f f f;
#X obj 1054 52 random 100;
#X obj 1053 83 / 100;
#X obj 1140 51 random 100;
#X obj 1139 82 / 100;
#X obj 935 7 t b b b;
#X obj 939 -35 r \$0-sixteen;
#X connect 0 0 15 0;
#X connect 1 0 15 3;
#X connect 2 0 15 1;
#X connect 3 0 5 0;
#X connect 4 0 0 0;
#X connect 5 0 6 0;
#X connect 6 0 0 0;
#X connect 7 0 11 0;
#X connect 8 0 15 2;
#X connect 9 0 16 0;
#X connect 10 0 9 0;
#X connect 11 0 16 2;
#X connect 12 0 16 1;
#X connect 13 0 14 0;
#X connect 14 0 16 1;
#X connect 15 0 17 0;
#X connect 17 0 16 0;
#X connect 18 0 19 0;
#X connect 19 0 20 2;
#X connect 20 0 17 1;
#X connect 21 0 22 0;
#X connect 22 0 20 0;
#X connect 23 0 24 0;
#X connect 24 0 20 1;
#X connect 25 0 21 0;
#X connect 25 1 18 0;
#X connect 25 2 23 0;
#X connect 26 0 25 0;
#X restore 1301 112 pd sphere16;
#X text 461 28 :::::::::::::WINDOW:::::::::::::;
#X text 451 248 :::::::::::::GUI:::::::::::::;
#X text 35 703 :::::::::::: \; README:::::::::::::;
#X text 34 753 Patched quickly just as a POC. You need some externals
(check pd ableton link \, Gem \, mtl abstraction \, cyclone \, zexy
and surely others).;
#X text 562 530 1- link stop -> preparation time + BPM random 2- link
start -> jam time random 3- link stop;
#X connect 1 0 0 0;
#X connect 16 0 15 0;
#X connect 18 0 6 0;
#X connect 19 0 12 0;
#X connect 20 0 13 0;
#X connect 21 0 14 0;
#X connect 22 0 17 0;
#X connect 23 0 41 0;
#X connect 25 0 41 0;
#X connect 26 0 41 0;
#X connect 27 0 28 0;
#X connect 30 0 29 0;
#X connect 31 0 41 0;
#X connect 32 0 34 0;
#X connect 36 0 18 0;
#X connect 36 0 27 0;
#X connect 36 0 30 0;
#X connect 36 0 37 0;
#X connect 37 0 42 0;
#X connect 38 0 7 0;
#X connect 39 0 8 0;
#X connect 40 0 24 0;
